<?xml version="1.0" encoding="UTF-8"?>
<svg version="1.1" xmlns="http://www.w3.org/2000/svg" width="500" height="500">
<path d="M0 0 C165 0 330 0 500 0 C500 165 500 330 500 500 C335 500 170 500 0 500 C0 335 0 170 0 0 Z " fill="#FEFEFE" transform="translate(0,0)"/>
<path d="M0 0 C-0.54723683 3.37462715 -1.0549 5.08235 -3 8 C-3 9.32 -3 10.64 -3 12 C-3.969375 12.433125 -4.93875 12.86625 -5.9375 13.3125 C-9.27731765 14.7014861 -9.27731765 14.7014861 -10 18 C-13.44450737 20.29633824 -15.93812283 20.54016485 -20 21 C-19.01 21.33 -18.02 21.66 -17 22 C-17 22.66 -17 23.32 -17 24 C-17.99 24.33 -18.98 24.66 -20 25 C-19.236875 25.639375 -18.47375 26.27875 -17.6875 26.9375 C-12.63245773 32.09306867 -11.80735152 38.51357006 -11.5625 45.5 C-11.72335261 51.50749535 -12.8823806 55.88515567 -16 61 C-16.4125 61.68707031 -16.825 62.37414062 -17.25 63.08203125 C-21.76693082 69.79326652 -28.05309317 74.37894898 -35.5 77.4375 C-45.44165748 79.03526638 -54.80781615 78.20276896 -63.25 72.3125 C-70.33763615 66.52784342 -74.14712817 59.5586155 -77 51 C-77.71436435 42.09972281 -77.25806308 34.00329375 -73 26 C-72.34 25.67 -71.68 25.34 -71 25 C-71 26.32 -71 27.64 -71 29 C-70.34 29 -69.68 29 -69 29 C-69 28.34 -69 27.68 -69 27 C-67.35 26.34 -65.7 25.68 -64 25 C-65.05875074 28.40312738 -66.00902154 31.01353231 -68 34 C-68.45394552 36.27912938 -68.45394552 36.27912938 -68.625 38.6875 C-68.69976562 39.49574219 -68.77453125 40.30398437 -68.8515625 41.13671875 C-68.90054688 41.75160156 -68.94953125 42.36648437 -69 43 C-68.76925781 42.48050781 -68.53851563 41.96101563 -68.30078125 41.42578125 C-66.09758071 36.71458958 -63.8883021 33.45626853 -60 30 C-59.34 30.33 -58.68 30.66 -58 31 C-58.61875 31.763125 -59.2375 32.52625 -59.875 33.3125 C-65.83884658 40.85501186 -66.3491764 48.68294635 -67 58 C-66.38640625 58.29648437 -65.7728125 58.59296875 -65.140625 58.8984375 C-62.88567831 60.05882978 -60.99071996 61.43586289 -59 63 C-60.0975223 60.00675737 -60.67682892 59.15389099 -63.625 57.75 C-64.40875 57.5025 -65.1925 57.255 -66 57 C-66 56.34 -66 55.68 -66 55 C-64.68 55 -63.36 55 -62 55 C-62.16371094 54.45859375 -62.32742187 53.9171875 -62.49609375 53.359375 C-63.08590587 50.59777407 -63.09609308 48.07181861 -63.0625 45.25 C-63.05347656 44.26515625 -63.04445313 43.2803125 -63.03515625 42.265625 C-63.02355469 41.51796875 -63.01195313 40.7703125 -63 40 C-62.34 40 -61.68 40 -61 40 C-60.80664062 40.90363281 -60.61328125 41.80726563 -60.4140625 42.73828125 C-60.15367188 43.91777344 -59.89328125 45.09726563 -59.625 46.3125 C-59.36976562 47.48425781 -59.11453125 48.65601563 -58.8515625 49.86328125 C-58.14304469 53.12920445 -58.14304469 53.12920445 -56 56 C-55.01 56 -54.02 56 -53 56 C-54.32 54.35 -55.64 52.7 -57 51 C-52.36041361 51.86445124 -48.68390317 54.37134774 -44.65625 56.72265625 C-41.89042788 58.28891816 -41.89042788 58.28891816 -38 58 C-37.505 57.01 -37.505 57.01 -37 56 C-38.98 56 -40.96 56 -43 56 C-43.33 55.34 -43.66 54.68 -44 54 C-39.38 54 -34.76 54 -30 54 C-29.67 52.35 -29.34 50.7 -29 49 C-28.46246094 48.01773438 -28.46246094 48.01773438 -27.9140625 47.015625 C-26.7158158 44.37333741 -26.99951088 42.60371733 -27.375 39.75 C-27.48585937 38.85796875 -27.59671875 37.9659375 -27.7109375 37.046875 C-27.80632812 36.37140625 -27.90171875 35.6959375 -28 35 C-24.125 36.75 -24.125 36.75 -23 39 C-22.960008 40.99960012 -22.95653201 43.00047242 -23 45 C-22.34 45 -21.68 45 -21 45 C-20.78807779 39.80790596 -21.4087311 35.873261 -23 31 C-23.66 31 -24.32 31 -25 31 C-25.53625 30.2575 -26.0725 29.515 -26.625 28.75 C-29.65029305 25.2470291 -32.60832478 23.43891065 -37 22 C-38.74745042 21.87405763 -40.49850464 21.79133322 -42.25 21.75 C-44.7890625 21.61328125 -44.7890625 21.61328125 -47 21 C-49.03436746 18.55354273 -50.07628031 16.02621599 -51 13 C-53.31 13 -55.62 13 -58 13 C-58.33 13.99 -58.66 14.98 -59 16 C-58.01 16 -57.02 16 -56 16 C-56.21484375 17.890625 -56.21484375 17.890625 -57 20 C-59.06640625 21.046875 -59.06640625 21.046875 -61.5625 21.75 C-62.38878906 21.99234375 -63.21507813 22.2346875 -64.06640625 22.484375 C-64.70449219 22.65453125 -65.34257813 22.8246875 -66 23 C-64.88686466 17.83251805 -63.83040548 13.24560821 -60.875 8.8125 C-57.4389139 6.64627181 -55.17692278 6.22011527 -51.16015625 6.44140625 C-47.22828619 7.45814661 -46.04544351 9.56893346 -44 13 C-44 14.32 -44 15.64 -44 17 C-43.21625 16.34 -42.4325 15.68 -41.625 15 C-39 13 -39 13 -37 13 C-37 12.34 -37 11.68 -37 11 C-30.54711837 4.86392651 -23.51316185 3.9774371 -15 3 C-10.01058086 2.04929406 -5.0391264 0 0 0 Z " fill="#1D8AC4" transform="translate(159,205)"/>
<path d="M0 0 C6.34968485 4.32090689 11.29985491 9.3435643 13 17 C13.29020296 21.35796305 13.24253669 25.64107675 13 30 C10.69179492 31.15410254 9.39215724 31.1210297 6.82568359 31.11352539 C5.53457169 31.11341209 5.53457169 31.11341209 4.21737671 31.11329651 C3.28712677 31.10813522 2.35687683 31.10297394 1.3984375 31.09765625 C0.44683746 31.0962413 -0.50476257 31.09482635 -1.48519897 31.09336853 C-4.53183097 31.08776012 -7.57839013 31.07520619 -10.625 31.0625 C-12.68749894 31.05748608 -14.74999903 31.05292299 -16.8125 31.04882812 C-21.87502817 31.03778796 -26.93750173 31.02051767 -32 31 C-29.00060191 37.38464499 -29.00060191 37.38464499 -23.375 41.1875 C-17.53331541 42.59383147 -11.37699732 43.0725699 -6 40 C-5.29875 39.29875 -4.5975 38.5975 -3.875 37.875 C-3.25625 37.25625 -2.6375 36.6375 -2 36 C1 36 1 36 3.5625 38.25 C5.60914008 40.55902983 6.73221547 42.26579189 8 45 C0.53800856 51.97533983 -6.04181704 56.24546917 -16.5 56.625 C-25.98045589 56.25265581 -31.9535353 53.49659302 -38.4375 46.625 C-45.77896645 37.74419381 -46.97389453 28.22243586 -46 17 C-43.62375884 8.57211665 -38.14429669 3.28961667 -30.94140625 -1.31640625 C-21.20280881 -6.44480527 -9.47216328 -5.10260693 0 0 Z " fill="#1A8AC4" transform="translate(359,227)"/>
<path d="M0 0 C1.51400391 0.01740234 1.51400391 0.01740234 3.05859375 0.03515625 C4.07050781 0.04417969 5.08242188 0.05320313 6.125 0.0625 C7.29869141 0.07990234 7.29869141 0.07990234 8.49609375 0.09765625 C8.82609375 1.41765625 9.15609375 2.73765625 9.49609375 4.09765625 C10.52734375 3.43765625 11.55859375 2.77765625 12.62109375 2.09765625 C19.63999487 -1.34978988 27.52907006 -1.24928668 34.85546875 1.23828125 C42.12620299 4.67469793 47.74959746 8.21350495 51.12792969 15.72680664 C52.74354752 20.25018799 52.89899658 24.39117625 52.82421875 29.15625 C52.82234558 29.98600845 52.82047241 30.81576691 52.81854248 31.67066956 C52.81186791 33.4076851 52.79804622 35.1446868 52.77734375 36.8815918 C52.74589467 39.55206114 52.73633774 42.22194104 52.73046875 44.89257812 C52.72130932 46.58464269 52.71093696 48.27670122 52.69921875 49.96875 C52.69284393 51.17016884 52.69284393 51.17016884 52.68634033 52.39585876 C52.61333104 57.98041896 52.61333104 57.98041896 51.49609375 59.09765625 C49.68682094 59.22253383 47.87213268 59.27336471 46.05859375 59.28515625 C45.06988281 59.29933594 44.08117187 59.31351562 43.0625 59.328125 C40.49609375 59.09765625 40.49609375 59.09765625 38.49609375 57.09765625 C38.27489064 54.57921375 38.17088311 52.16203116 38.15234375 49.640625 C38.13772095 48.90064774 38.12309814 48.16067047 38.10803223 47.39826965 C38.06146311 45.02728698 38.02732261 42.65638764 37.99609375 40.28515625 C37.95484666 37.17417391 37.90107619 34.06377092 37.83984375 30.953125 C37.83456665 30.24149704 37.82928955 29.52986908 37.82385254 28.79667664 C37.74459975 24.81538407 37.40499781 21.62329334 35.49609375 18.09765625 C30.74692903 14.43684178 26.86116317 13.37342923 20.8671875 13.65625 C16.70361494 14.4313467 15.22751227 15.81995403 12.49609375 19.09765625 C9.78331324 26.83761744 10.04775973 34.9875834 9.87109375 43.09765625 C9.83284409 44.55470907 9.79378848 46.01174096 9.75390625 47.46875 C9.65866869 51.01152551 9.57436478 54.55446055 9.49609375 58.09765625 C6.99469773 59.34835426 5.22216684 59.23068092 2.43359375 59.22265625 C1.08587891 59.22652344 1.08587891 59.22652344 -0.2890625 59.23046875 C-2.50390625 59.09765625 -2.50390625 59.09765625 -3.50390625 58.09765625 C-3.60284403 56.32319616 -3.63189717 54.54479374 -3.63330078 52.76757812 C-3.63645294 51.62969849 -3.6396051 50.49181885 -3.64285278 49.31945801 C-3.64082855 48.08095093 -3.63880432 46.84244385 -3.63671875 45.56640625 C-3.63767548 44.30501831 -3.6386322 43.04363037 -3.63961792 41.74401855 C-3.6403 39.07068487 -3.63894154 36.39744188 -3.63427734 33.72412109 C-3.62858006 30.29058934 -3.63185926 26.85713575 -3.63784981 23.42360687 C-3.64232387 20.15870382 -3.63919508 16.89381032 -3.63671875 13.62890625 C-3.63874298 12.39039917 -3.64076721 11.15189209 -3.64285278 9.87585449 C-3.63970062 8.73797485 -3.63654846 7.60009521 -3.63330078 6.42773438 C-3.63250519 5.42037231 -3.63170959 4.41301025 -3.63088989 3.37512207 C-3.45168142 0.16099811 -3.23198029 0.12605227 0 0 Z " fill="#1F8CC6" transform="translate(256.50390625,222.90234375)"/>
<path d="M0 0 C1.34771484 -0.00386719 1.34771484 -0.00386719 2.72265625 -0.0078125 C4.9375 0.125 4.9375 0.125 5.9375 1.125 C6.060523 3.57384322 6.12357946 5.99885046 6.1484375 8.44921875 C6.17652505 9.96810938 6.20518962 11.48698944 6.234375 13.00585938 C6.27551058 15.40421033 6.31238814 17.80236778 6.33886719 20.20092773 C6.36662016 22.51327676 6.41251102 24.82472224 6.4609375 27.13671875 C6.46419037 27.84632248 6.46744324 28.55592621 6.47079468 29.28703308 C6.61402345 35.14038826 8.17838296 39.09935008 12 43.5 C16.31027565 45.88440781 20.11974124 45.88163519 24.9375 45.125 C29.99804193 42.73274381 31.85083496 40.23007624 33.9375 35.125 C34.23840197 32.3895436 34.40153675 29.86917333 34.4140625 27.13671875 C34.42964203 26.39291458 34.44522156 25.64911041 34.46127319 24.88276672 C34.50850444 22.52602051 34.53647902 20.16956748 34.5625 17.8125 C34.59898609 15.4377834 34.63952255 13.0632334 34.68515015 10.68867493 C34.71239612 9.2152944 34.73373908 7.74179086 34.74868774 6.26823425 C34.82678738 1.23571262 34.82678738 1.23571262 35.9375 0.125 C37.74677281 0.00012242 39.56146107 -0.05070846 41.375 -0.0625 C42.36371094 -0.07667969 43.35242188 -0.09085938 44.37109375 -0.10546875 C46.9375 0.125 46.9375 0.125 48.9375 2.125 C49.16205324 4.75661298 49.26564146 7.27981219 49.2734375 9.9140625 C49.2800943 10.69131683 49.2867511 11.46857117 49.29360962 12.26937866 C49.30374765 13.91865675 49.30842628 15.56797594 49.30810547 17.21728516 C49.31244757 19.71978383 49.34866462 22.22047355 49.38671875 24.72265625 C49.39259325 26.328119 49.3965584 27.9335901 49.3984375 29.5390625 C49.41280853 30.27895416 49.42717957 31.01884583 49.44198608 31.78115845 C49.36482327 40.73090867 44.82397853 46.78571543 38.9375 53.125 C38.07125 54.23875 38.07125 54.23875 37.1875 55.375 C31.67140585 59.66529545 24.22637556 60.71936777 17.3828125 60.47265625 C10.12114267 59.44024632 3.7407203 55.58115701 -1.0625 50.125 C-8.1334249 40.1467729 -7.79452676 30.5401196 -7.4375 18.875 C-7.40733536 17.14718236 -7.37997112 15.41931346 -7.35546875 13.69140625 C-7.29004827 9.50131454 -7.18689903 5.31373849 -7.0625 1.125 C-4.56110398 -0.12569801 -2.78857309 -0.00802467 0 0 Z " fill="#1A8AC5" transform="translate(159.0625,222.875)"/>
<path d="M0 0 C1.64935547 -0.00386719 1.64935547 -0.00386719 3.33203125 -0.0078125 C4.46511719 -0.00007812 5.59820312 0.00765625 6.765625 0.015625 C7.91417969 0.00789062 9.06273437 0.00015625 10.24609375 -0.0078125 C11.34050781 -0.00523437 12.43492187 -0.00265625 13.5625 0 C14.56120117 0.00225586 15.55990234 0.00451172 16.58886719 0.00683594 C19.015625 0.265625 19.015625 0.265625 21.015625 2.265625 C21.015625 5.895625 21.015625 9.525625 21.015625 13.265625 C12.435625 13.265625 3.855625 13.265625 -4.984375 13.265625 C-4.984375 15.905625 -4.984375 18.545625 -4.984375 21.265625 C-2.80929668 23.44070332 2.7740343 22.6169539 5.84960938 22.6953125 C10.55861915 22.90402207 13.97574823 23.60796745 18.015625 26.265625 C21.82211459 31.16979996 23.83294134 36.89142418 23.4375 43.09765625 C22.43092218 48.27034782 20.30196063 52.07341149 16.453125 55.640625 C11.93675889 58.65153574 9.88293384 59.51493155 4.4140625 59.49609375 C3.11984375 59.49416016 1.825625 59.49222656 0.4921875 59.49023438 C-0.51666504 59.48092896 -0.51666504 59.48092896 -1.54589844 59.47143555 C-3.60884891 59.45312967 -5.67135163 59.45092628 -7.734375 59.45117188 C-17.84423167 59.40576833 -17.84423167 59.40576833 -18.984375 58.265625 C-19.08288671 56.43446617 -19.11410129 54.59942567 -19.109375 52.765625 C-19.11195313 51.7653125 -19.11453125 50.765 -19.1171875 49.734375 C-18.984375 47.265625 -18.984375 47.265625 -17.984375 46.265625 C-16.24015125 46.13219019 -14.49098774 46.06218141 -12.7421875 46.01953125 C-11.67613281 45.98666016 -10.61007812 45.95378906 -9.51171875 45.91992188 C-7.2513987 45.85893735 -4.99097661 45.8016196 -2.73046875 45.74804688 C-1.12751953 45.69680664 -1.12751953 45.69680664 0.5078125 45.64453125 C1.49120605 45.6194751 2.47459961 45.59441895 3.48779297 45.56860352 C6.25922363 45.4294825 6.25922363 45.4294825 9.015625 43.265625 C9.74527866 40.70279758 9.74527866 40.70279758 10.015625 38.265625 C6.4899635 37.0904045 3.47988964 37.08260634 -0.234375 36.953125 C-6.19034206 36.62511728 -10.34314963 36.18488198 -14.984375 32.265625 C-19.39298303 26.27373979 -20.67082944 20.54204203 -19.984375 13.265625 C-18.26671549 8.56466212 -15.81508511 5.47273114 -11.984375 2.265625 C-7.88041215 0.61457249 -4.40843315 0.00991296 0 0 Z " fill="#1B8AC5" transform="translate(393.984375,222.734375)"/>
<path d="M0 0 C1.50046875 0.00386719 1.50046875 0.00386719 3.03125 0.0078125 C4.0315625 0.00523437 5.031875 0.00265625 6.0625 0 C8.53125 0.1328125 8.53125 0.1328125 9.53125 1.1328125 C9.60396741 3.48594805 9.61495868 5.84114918 9.59375 8.1953125 C9.58472656 9.48566406 9.57570313 10.77601563 9.56640625 12.10546875 C9.55480469 13.10449219 9.54320312 14.10351562 9.53125 15.1328125 C11.35462891 15.11541016 11.35462891 15.11541016 13.21484375 15.09765625 C14.79947764 15.08827972 16.38411318 15.07917937 17.96875 15.0703125 C18.77119141 15.06193359 19.57363281 15.05355469 20.40039062 15.04492188 C22.44420221 15.0362982 24.48808902 15.080531 26.53125 15.1328125 C27.53125 16.1328125 27.53125 16.1328125 27.6640625 18.6015625 C27.66148437 19.601875 27.65890625 20.6021875 27.65625 21.6328125 C27.66011719 23.13328125 27.66011719 23.13328125 27.6640625 24.6640625 C27.53125 27.1328125 27.53125 27.1328125 26.53125 28.1328125 C23.83470146 28.20600871 21.16433542 28.22523787 18.46875 28.1953125 C17.71013672 28.19080078 16.95152344 28.18628906 16.16992188 28.18164062 C14.29033129 28.1698193 12.41078101 28.15188328 10.53125 28.1328125 C10.61229226 32.19611907 10.72512434 36.25794311 10.84375 40.3203125 C10.86630859 41.47080078 10.88886719 42.62128906 10.91210938 43.80664062 C10.94755859 44.91845703 10.98300781 46.03027344 11.01953125 47.17578125 C11.04571533 48.19696045 11.07189941 49.21813965 11.09887695 50.27026367 C11.5926729 53.53946606 12.61229502 55.46246126 14.53125 58.1328125 C17.35910499 60.03752474 19.91841131 60.46109144 23.28125 60.7578125 C24.08046875 60.83257812 24.8796875 60.90734375 25.703125 60.984375 C26.30640625 61.03335938 26.9096875 61.08234375 27.53125 61.1328125 C27.55811553 63.11190648 27.57758375 65.09110221 27.59375 67.0703125 C27.60535156 68.17246094 27.61695313 69.27460938 27.62890625 70.41015625 C27.53125 73.1328125 27.53125 73.1328125 26.53125 74.1328125 C18.80624523 74.85967291 10.8741406 73.88998045 4.53125 69.1328125 C0.53125 64.70038007 0.53125 64.70038007 0.53125 62.1328125 C-0.12875 62.1328125 -0.78875 62.1328125 -1.46875 62.1328125 C-3.81631345 55.65128111 -3.74227367 49.5141375 -3.69921875 42.671875 C-3.69876053 41.48556488 -3.69830231 40.29925476 -3.6978302 39.07699585 C-3.69481875 36.58077997 -3.68696576 34.08456578 -3.67456055 31.58837891 C-3.65621389 27.7502586 -3.65405163 23.91237849 -3.65429688 20.07421875 C-3.64938476 17.6484354 -3.64355779 15.22265369 -3.63671875 12.796875 C-3.63560593 11.64281158 -3.6344931 10.48874817 -3.63334656 9.29971313 C-3.62696671 8.2412619 -3.62058685 7.18281067 -3.61401367 6.09228516 C-3.61020187 5.156315 -3.60639008 4.22034485 -3.60246277 3.25601196 C-3.40835333 0.1737853 -3.09994128 0.16676899 0 0 Z " fill="#1F8BC4" transform="translate(424.46875,207.8671875)"/>
<path d="M0 0 C2.83203125 0.03255208 5.6640625 0.06510417 8.49609375 0.09765625 C8.49609375 5.04765625 8.49609375 9.99765625 8.49609375 15.09765625 C9.78386719 15.08605469 11.07164063 15.07445312 12.3984375 15.0625 C14.07682147 15.05312355 15.75520701 15.0440232 17.43359375 15.03515625 C18.70879883 15.02258789 18.70879883 15.02258789 20.00976562 15.00976562 C20.81865234 15.00654297 21.62753906 15.00332031 22.4609375 15 C23.20980225 14.99476318 23.95866699 14.98952637 24.73022461 14.98413086 C26.49609375 15.09765625 26.49609375 15.09765625 27.49609375 16.09765625 C27.59460546 17.92881508 27.62582004 19.76385558 27.62109375 21.59765625 C27.62496094 23.098125 27.62496094 23.098125 27.62890625 24.62890625 C27.49609375 27.09765625 27.49609375 27.09765625 26.49609375 28.09765625 C25.15341962 28.18397499 23.80635053 28.20472098 22.4609375 28.1953125 C21.36833618 28.19156616 21.36833618 28.19156616 20.25366211 28.18774414 C19.32303955 28.17864014 18.39241699 28.16953613 17.43359375 28.16015625 C13.00953125 28.12921875 13.00953125 28.12921875 8.49609375 28.09765625 C8.49609375 36.34765625 8.49609375 44.59765625 8.49609375 53.09765625 C9.15609375 53.09765625 9.81609375 53.09765625 10.49609375 53.09765625 C10.92921875 53.88140625 11.36234375 54.66515625 11.80859375 55.47265625 C13.87008458 58.67941976 14.84077183 59.14409401 18.49609375 60.09765625 C21.49637787 60.53131076 24.47385203 60.82700774 27.49609375 61.09765625 C27.49609375 65.05765625 27.49609375 69.01765625 27.49609375 73.09765625 C23.03763298 75.32688663 17.33406193 74.58542326 12.49609375 74.09765625 C6.14422206 71.90876649 1.75201531 66.8318111 -1.50390625 61.09765625 C-4.17968595 55.14710593 -3.77441527 49.12631235 -3.734375 42.734375 C-3.73391678 41.54664993 -3.73345856 40.35892487 -3.73298645 39.13520813 C-3.72997224 36.63301592 -3.72211092 34.13082544 -3.7097168 31.62866211 C-3.69138965 27.78167142 -3.6892077 23.93492054 -3.68945312 20.08789062 C-3.68454039 17.65754999 -3.67871315 15.22721098 -3.671875 12.796875 C-3.67076218 11.63967453 -3.66964935 10.48247406 -3.66850281 9.29020691 C-3.65893303 7.69768852 -3.65893303 7.69768852 -3.64916992 6.07299805 C-3.64535812 5.13401169 -3.64154633 4.19502533 -3.63761902 3.22758484 C-3.44243243 0.1184315 -3.13234408 0.12216631 0 0 Z " fill="#1989C4" transform="translate(52.50390625,207.90234375)"/>
<path d="M0 0 C0.89589844 -0.01417969 1.79179687 -0.02835938 2.71484375 -0.04296875 C5.0625 0.1875 5.0625 0.1875 7.0625 2.1875 C7.0625 3.1775 7.0625 4.1675 7.0625 5.1875 C7.66578125 4.91035156 8.2690625 4.63320312 8.890625 4.34765625 C9.68984375 3.98542969 10.4890625 3.62320313 11.3125 3.25 C12.10140625 2.89035156 12.8903125 2.53070313 13.703125 2.16015625 C18.63438043 0.12723803 22.76952754 0.01395992 28.0625 0.1875 C29.0625 1.1875 29.0625 1.1875 29.1953125 3.65625 C29.19273437 4.6565625 29.19015625 5.656875 29.1875 6.6875 C29.19136719 8.18796875 29.19136719 8.18796875 29.1953125 9.71875 C29.0625 12.1875 29.0625 12.1875 28.0625 13.1875 C26.31782717 13.50950337 24.56638661 13.79519643 22.8125 14.0625 C17.54615188 14.99025045 14.02703456 16.08264155 10.3125 20.0625 C7.74577901 24.42592568 7.91373153 29.21421007 7.81640625 34.16796875 C7.78350496 35.50977306 7.75029277 36.85156978 7.71679688 38.19335938 C7.66919552 40.29349166 7.62465523 42.39358531 7.58569336 44.49389648 C7.54609596 46.53138414 7.49457125 48.56829638 7.44140625 50.60546875 C7.4163501 51.82000732 7.39129395 53.0345459 7.36547852 54.28588867 C7.0625 57.1875 7.0625 57.1875 5.0625 59.1875 C2.4609375 59.3828125 2.4609375 59.3828125 -0.5625 59.3125 C-1.56539062 59.29445313 -2.56828125 59.27640625 -3.6015625 59.2578125 C-4.75785156 59.22300781 -4.75785156 59.22300781 -5.9375 59.1875 C-5.96062851 51.64251767 -5.97841769 44.09753899 -5.98931217 36.55252934 C-5.99453989 33.04941115 -6.0016355 29.54631715 -6.01293945 26.04321289 C-6.02584206 22.01969159 -6.03072912 17.99619586 -6.03515625 13.97265625 C-6.04289818 12.07737938 -6.04289818 12.07737938 -6.05079651 10.14381409 C-6.05087204 8.982686 -6.05094757 7.82155792 -6.05102539 6.62524414 C-6.05435631 5.0830294 -6.05435631 5.0830294 -6.05775452 3.50965881 C-5.83873899 -0.71961136 -3.73042082 0.02676055 0 0 Z " fill="#188AC5" transform="translate(218.9375,222.8125)"/>
<path d="M0 0 C3 0 3 0 5.5625 2.25 C7.60914008 4.55902983 8.73221547 6.26579189 10 9 C2.53800856 15.97533983 -4.04181704 20.24546917 -14.5 20.625 C-22.08202648 20.34928995 -28.18632138 18.70100175 -33.71875 13.33203125 C-35.125 11.6875 -35.125 11.6875 -37 9 C-36.2575 8.5875 -35.515 8.175 -34.75 7.75 C-32.09828315 6.06254382 -30.13325986 4.29127911 -28 2 C-27.46375 2.28875 -26.9275 2.5775 -26.375 2.875 C-19.6901058 6.04152883 -13.4043473 7.17449261 -6.1875 5.25 C-3.86204608 4.04842091 -3.86204608 4.04842091 -1.875 1.875 C-1.25625 1.25625 -0.6375 0.6375 0 0 Z " fill="#218DC5" transform="translate(357,263)"/>
<path d="M0 0 C0.66 0.33 1.32 0.66 2 1 C3.29129444 20.96382203 3.29129444 20.96382203 -2.8828125 28.04296875 C-8.15669595 32.91790529 -12.11581039 36.33292831 -19.5625 36.375 C-21.04391503 36.28029767 -22.52490505 36.16629463 -24 36 C-24 35.34 -24 34.68 -24 34 C-24.99 33.67 -25.98 33.34 -27 33 C-26.01 33 -25.02 33 -24 33 C-24.495 31.515 -24.495 31.515 -25 30 C-24.37351562 29.87882812 -23.74703125 29.75765625 -23.1015625 29.6328125 C-22.28429687 29.46523438 -21.46703125 29.29765625 -20.625 29.125 C-19.40683594 28.88136719 -19.40683594 28.88136719 -18.1640625 28.6328125 C-15.81326077 28.13341068 -15.81326077 28.13341068 -14 26 C-14.66 25.01 -15.32 24.02 -16 23 C-9.25 21 -9.25 21 -7 21 C-7 20.34 -7 19.68 -7 19 C-8.3303125 19.556875 -8.3303125 19.556875 -9.6875 20.125 C-13.40826005 21.10784228 -14.67438135 20.76062164 -18 19 C-18.33 20.65 -18.66 22.3 -19 24 C-19.99 23.34 -20.98 22.68 -22 22 C-21.01 20.68 -20.02 19.36 -19 18 C-21.64 18 -24.28 18 -27 18 C-27.33 17.34 -27.66 16.68 -28 16 C-23.38 16 -18.76 16 -14 16 C-14 15.34 -14 14.68 -14 14 C-13.34 14 -12.68 14 -12 14 C-11.67 13.34 -11.34 12.68 -11 12 C-11 13.65 -11 15.3 -11 17 C-9.35 16.67 -7.7 16.34 -6 16 C-6 14.68 -6 13.36 -6 12 C-5.34 12 -4.68 12 -4 12 C-3.87882812 11.30132812 -3.75765625 10.60265625 -3.6328125 9.8828125 C-3.46523437 8.97273437 -3.29765625 8.06265625 -3.125 7.125 C-2.96257812 6.22007812 -2.80015625 5.31515625 -2.6328125 4.3828125 C-2 2 -2 2 0 0 Z " fill="#1689C5" transform="translate(143,243)"/>
<path d="M0 0 C0.66 0 1.32 0 2 0 C2.19335938 0.90363281 2.38671875 1.80726563 2.5859375 2.73828125 C2.84632812 3.91777344 3.10671875 5.09726563 3.375 6.3125 C3.75785156 8.07013672 3.75785156 8.07013672 4.1484375 9.86328125 C4.85695531 13.12920445 4.85695531 13.12920445 7 16 C7.99 16 8.98 16 10 16 C8.68 14.35 7.36 12.7 6 11 C10.63958639 11.86445124 14.31609683 14.37134774 18.34375 16.72265625 C21.10957212 18.28891816 21.10957212 18.28891816 25 18 C25.33 17.34 25.66 16.68 26 16 C26.66 16 27.32 16 28 16 C27.34 17.32 26.68 18.64 26 20 C26.33 20.33 26.66 20.66 27 21 C27.66 19.68 28.32 18.36 29 17 C30.0725 17.185625 31.145 17.37125 32.25 17.5625 C35.40391546 17.9304568 37.09818492 18.04465343 40 17 C40 17.66 40 18.32 40 19 C37.36 19.66 34.72 20.32 32 21 C31.67 22.32 31.34 23.64 31 25 C30 26 30 26 26.9375 26.0625 C25.968125 26.041875 24.99875 26.02125 24 26 C24 25.34 24 24.68 24 24 C23.4225 24.33 22.845 24.66 22.25 25 C20 26 20 26 16 26 C16 25.34 16 24.68 16 24 C14.58344207 23.9727585 13.16672955 23.95349533 11.75 23.9375 C10.96109375 23.92589844 10.1721875 23.91429687 9.359375 23.90234375 C7.09308998 23.99614694 5.1711105 24.36758937 3 25 C3 23.35 3 21.7 3 20 C1.02 19.01 -0.96 18.02 -3 17 C-3 16.34 -3 15.68 -3 15 C-1.68 15 -0.36 15 1 15 C0.75443359 14.18789063 0.75443359 14.18789063 0.50390625 13.359375 C-0.08590587 10.59777407 -0.09609308 8.07181861 -0.0625 5.25 C-0.05347656 4.26515625 -0.04445313 3.2803125 -0.03515625 2.265625 C-0.02355469 1.51796875 -0.01195313 0.7703125 0 0 Z " fill="#2C90C3" transform="translate(96,245)"/>
<path d="M0 0 C3.63 0 7.26 0 11 0 C11 0.33 11 0.66 11 1 C8.69 1.33 6.38 1.66 4 2 C4.99 2.33 5.98 2.66 7 3 C7 3.66 7 4.32 7 5 C6.01 5.33 5.02 5.66 4 6 C4.763125 6.639375 5.52625 7.27875 6.3125 7.9375 C12.33101045 14.07569674 12.32971197 22.02122422 12.30078125 30.1796875 C12 33 12 33 10 36 C9.67 30.72 9.34 25.44 9 20 C6.83925323 20.78652294 6.83925323 20.78652294 6.40234375 22.77734375 C6.24894531 23.49019531 6.09554687 24.20304687 5.9375 24.9375 C5.44690289 27.17154137 5.02602198 28.94795605 4 31 C3.34 31 2.68 31 2 31 C2 32.32 2 33.64 2 35 C-0.475 35.495 -0.475 35.495 -3 36 C-3.495 34.515 -3.495 34.515 -4 33 C-4.66 32.67 -5.32 32.34 -6 32 C-5.484375 31.21625 -4.96875 30.4325 -4.4375 29.625 C-2.52335867 24.7980349 -3.17464135 21.03170452 -4 16 C-0.125 17.75 -0.125 17.75 1 20 C1.039992 21.99960012 1.04346799 24.00047242 1 26 C1.66 26 2.32 26 3 26 C3.21192221 20.80790596 2.5912689 16.873261 1 12 C0.34 12 -0.32 12 -1 12 C-2.625 9.5 -2.625 9.5 -4 7 C-2.68 7.33 -1.36 7.66 0 8 C-0.33 7.01 -0.66 6.02 -1 5 C-1.66 4.67 -2.32 4.34 -3 4 C-3 3.34 -3 2.68 -3 2 C-2.01 2 -1.02 2 0 2 C0 1.34 0 0.68 0 0 Z " fill="#2E91C4" transform="translate(135,224)"/>
<path d="M0 0 C3.0949877 1.70074082 5.62398643 3.42316997 7.8125 6.25 C7.8125 7.24 7.8125 8.23 7.8125 9.25 C-2.0875 9.25 -11.9875 9.25 -22.1875 9.25 C-20.08842309 2.95276926 -19.61367652 2.239934 -14.1875 -0.75 C-9.05589476 -2.46053508 -4.86939165 -2.31659491 0 0 Z " fill="#F0F6F9" transform="translate(350.1875,236.75)"/>
<path d="M0 0 C3.93187006 1.01674036 5.11471274 3.12752721 7.16015625 6.55859375 C7.16015625 7.87859375 7.16015625 9.19859375 7.16015625 10.55859375 C10.73210998 12.51950685 14.05811802 13.20697497 18.0390625 13.8984375 C20.46787548 14.6543664 21.52783856 15.64466215 23.16015625 17.55859375 C22.83015625 18.21859375 22.50015625 18.87859375 22.16015625 19.55859375 C21.04640625 18.91921875 19.93265625 18.27984375 18.78515625 17.62109375 C15.3379442 15.83614943 12.77489673 15.37166815 8.91015625 15.30859375 C6.37109375 15.171875 6.37109375 15.171875 4.16015625 14.55859375 C2.12578879 12.11213648 1.08387594 9.58480974 0.16015625 6.55859375 C-2.14984375 6.55859375 -4.45984375 6.55859375 -6.83984375 6.55859375 C-7.16984375 7.54859375 -7.49984375 8.53859375 -7.83984375 9.55859375 C-6.84984375 9.55859375 -5.85984375 9.55859375 -4.83984375 9.55859375 C-5.0546875 11.44921875 -5.0546875 11.44921875 -5.83984375 13.55859375 C-7.90625 14.60546875 -7.90625 14.60546875 -10.40234375 15.30859375 C-11.64177734 15.67210937 -11.64177734 15.67210937 -12.90625 16.04296875 C-13.86337891 16.29820312 -13.86337891 16.29820312 -14.83984375 16.55859375 C-13.72670841 11.3911118 -12.67024923 6.80420196 -9.71484375 2.37109375 C-6.27875765 0.20486556 -4.01676653 -0.22129098 0 0 Z " fill="#4599C4" transform="translate(107.83984375,211.44140625)"/>
<path d="M0 0 C-0.54723683 3.37462715 -1.0549 5.08235 -3 8 C-3 9.32 -3 10.64 -3 12 C-3.94875 12.433125 -4.8975 12.86625 -5.875 13.3125 C-9.20041937 14.79302201 -9.20041937 14.79302201 -11 18 C-12.65 17.34 -14.3 16.68 -16 16 C-15.67 15.34 -15.34 14.68 -15 14 C-14.01 14 -13.02 14 -12 14 C-12.061875 13.236875 -12.12375 12.47375 -12.1875 11.6875 C-12 9 -12 9 -9 6 C-19.395 6.495 -19.395 6.495 -30 7 C-27.36372632 4.36372632 -25.60627298 4.48058781 -21.9375 4 C-14.79850105 2.99595474 -7.0637175 0 0 0 Z " fill="#4499C9" transform="translate(159,205)"/>
<path d="M0 0 C0.98871094 -0.01417969 1.97742188 -0.02835938 2.99609375 -0.04296875 C5.5625 0.1875 5.5625 0.1875 7.5625 2.1875 C7.76233984 4.86573087 7.84230985 7.43826305 7.828125 10.1171875 C7.83003845 10.90392853 7.8319519 11.69066956 7.83392334 12.50125122 C7.83528549 14.1673413 7.83158698 15.83344198 7.82324219 17.49951172 C7.81257129 20.04549161 7.82312145 22.5907613 7.8359375 25.13671875 C7.83461535 26.75520989 7.83205181 28.37370059 7.828125 29.9921875 C7.83217346 30.7527243 7.83622192 31.51326111 7.84039307 32.29684448 C7.80703796 36.07444373 7.68046782 38.98320609 5.5625 42.1875 C4.39869842 38.0679152 4.5339979 34.16494716 4.68359375 29.921875 C4.70720474 29.12847717 4.73081573 28.33507935 4.75514221 27.51763916 C4.83153929 24.99073317 4.91566613 22.46415233 5 19.9375 C5.0532447 18.22136992 5.10598493 16.50522412 5.15820312 14.7890625 C5.28712187 10.58833689 5.42297226 6.38788608 5.5625 2.1875 C2.2625 2.1875 -1.0375 2.1875 -4.4375 2.1875 C-4.7675 13.0775 -5.0975 23.9675 -5.4375 35.1875 C-5.7675 35.1875 -6.0975 35.1875 -6.4375 35.1875 C-6.4621519 30.36369198 -6.48033693 25.53992033 -6.49243164 20.71606445 C-6.49747174 19.07380536 -6.50430378 17.43155077 -6.51293945 15.78930664 C-6.52501926 13.43374521 -6.53073139 11.07824291 -6.53515625 8.72265625 C-6.54031754 7.98410904 -6.54547882 7.24556183 -6.55079651 6.4846344 C-6.5509925 4.71851912 -6.49944719 2.95252854 -6.4375 1.1875 C-4.69900372 -0.55099628 -2.3588363 0.01533704 0 0 Z " fill="#63A8CC" transform="translate(200.4375,222.8125)"/>
<path d="M0 0 C0.66 0 1.32 0 2 0 C1.34 1.32 0.68 2.64 0 4 C0.33 4.33 0.66 4.66 1 5 C1.66 3.68 2.32 2.36 3 1 C4.60875 1.2784375 4.60875 1.2784375 6.25 1.5625 C9.40391546 1.9304568 11.09818492 2.04465343 14 1 C14 1.66 14 2.32 14 3 C11.36 3.66 8.72 4.32 6 5 C5.67 6.32 5.34 7.64 5 9 C4 10 4 10 0.9375 10.0625 C-0.031875 10.041875 -1.00125 10.02125 -2 10 C-2 9.34 -2 8.68 -2 8 C-2.86625 8.495 -2.86625 8.495 -3.75 9 C-6 10 -6 10 -10 10 C-10 9.34 -10 8.68 -10 8 C-12.64 7.67 -15.28 7.34 -18 7 C-18.33 6.01 -18.66 5.02 -19 4 C-15.37 4.33 -11.74 4.66 -8 5 C-8 5.66 -8 6.32 -8 7 C-6.68 6.34 -5.36 5.68 -4 5 C-4 4.34 -4 3.68 -4 3 C-3.01 2.67 -2.02 2.34 -1 2 C-0.67 1.34 -0.34 0.68 0 0 Z " fill="#75B3D2" transform="translate(122,261)"/>
<path d="M0 0 C1.37478516 0.01740234 1.37478516 0.01740234 2.77734375 0.03515625 C3.69644531 0.04417969 4.61554688 0.05320313 5.5625 0.0625 C6.27277344 0.07410156 6.98304688 0.08570313 7.71484375 0.09765625 C7.71484375 1.08765625 7.71484375 2.07765625 7.71484375 3.09765625 C4.41484375 2.76765625 1.11484375 2.43765625 -2.28515625 2.09765625 C-2.28515625 20.24765625 -2.28515625 38.39765625 -2.28515625 57.09765625 C1.34484375 57.09765625 4.97484375 57.09765625 8.71484375 57.09765625 C8.38484375 57.75765625 8.05484375 58.41765625 7.71484375 59.09765625 C4.08484375 59.09765625 0.45484375 59.09765625 -3.28515625 59.09765625 C-3.30771174 51.55267036 -3.32607394 44.00769694 -3.33696842 36.46268559 C-3.34219614 32.9595674 -3.34929175 29.4564734 -3.3605957 25.95336914 C-3.37349831 21.92984784 -3.37838537 17.90635211 -3.3828125 13.8828125 C-3.39055443 11.98753563 -3.39055443 11.98753563 -3.39845276 10.05397034 C-3.39852829 8.89284225 -3.39860382 7.73171417 -3.39868164 6.53540039 C-3.40201256 4.99318565 -3.40201256 4.99318565 -3.40541077 3.41981506 C-3.24430574 0.30881797 -3.11250383 0.13301298 0 0 Z " fill="#3A90BE" transform="translate(216.28515625,222.90234375)"/>
<path d="M0 0 C3.875 1.75 3.875 1.75 5 4 C5.039992 5.99960012 5.04346799 8.00047242 5 10 C5.66 10 6.32 10 7 10 C7.66 8.68 8.32 7.36 9 6 C9.125 12.75 9.125 12.75 8 15 C7.34 15 6.68 15 6 15 C6 16.32 6 17.64 6 19 C4.35 19.33 2.7 19.66 1 20 C0.67 19.01 0.34 18.02 0 17 C-0.66 16.67 -1.32 16.34 -2 16 C-1.484375 15.21625 -0.96875 14.4325 -0.4375 13.625 C1.47664133 8.7980349 0.82535865 5.03170452 0 0 Z " fill="#519DC7" transform="translate(131,240)"/>
<path d="M0 0 C3.63 0 7.26 0 11 0 C11 0.33 11 0.66 11 1 C8.69 1.33 6.38 1.66 4 2 C4.99 2.33 5.98 2.66 7 3 C7 3.66 7 4.32 7 5 C6.01 5.33 5.02 5.66 4 6 C4.99 6.66 5.98 7.32 7 8 C6.67 8.66 6.34 9.32 6 10 C4.68 9.67 3.36 9.34 2 9 C2.495 10.0828125 2.495 10.0828125 3 11.1875 C4.00603529 14.01697427 4.16977402 16.02895466 4 19 C2.25372522 16.38058783 1.61277612 14.96175123 1 12 C0.34 12 -0.32 12 -1 12 C-2.625 9.5 -2.625 9.5 -4 7 C-2.68 7.33 -1.36 7.66 0 8 C-0.33 7.01 -0.66 6.02 -1 5 C-1.66 4.67 -2.32 4.34 -3 4 C-3 3.34 -3 2.68 -3 2 C-2.01 2 -1.02 2 0 2 C0 1.34 0 0.68 0 0 Z " fill="#3E96C5" transform="translate(135,224)"/>
<path d="M0 0 C2 2 2 2 2.1953125 5.4765625 C2.18201493 6.85950968 2.15816232 8.24238654 2.125 9.625 C2.11597656 10.33140625 2.10695313 11.0378125 2.09765625 11.765625 C2.07407603 13.51056098 2.03820461 15.25532295 2 17 C0.68 17 -0.64 17 -2 17 C-2 17.66 -2 18.32 -2 19 C-1.21625 19.12375 -0.4325 19.2475 0.375 19.375 C3 20 3 20 5 22 C5 22.99 5 23.98 5 25 C2.02950388 23.62084109 -0.58822467 22.23201568 -3 20 C-4.43613959 13.10200669 -2.64244443 6.37017853 0 0 Z " fill="#C2DBE8" transform="translate(95,243)"/>
<path d="M0 0 C0.33 0 0.66 0 1 0 C1 1.65 1 3.3 1 5 C2.32 4.67 3.64 4.34 5 4 C5.33 5.32 5.66 6.64 6 8 C1.28400182 8.92470553 -1.67265609 9.22923777 -6 7 C-6.33 8.65 -6.66 10.3 -7 12 C-7.99 11.34 -8.98 10.68 -10 10 C-9.01 8.68 -8.02 7.36 -7 6 C-9.64 6 -12.28 6 -15 6 C-15.33 5.34 -15.66 4.68 -16 4 C-11.38 4 -6.76 4 -2 4 C-2 3.34 -2 2.68 -2 2 C-1.34 2 -0.68 2 0 2 C0 1.34 0 0.68 0 0 Z " fill="#278DBF" transform="translate(131,255)"/>
<path d="M0 0 C0.66 0 1.32 0 2 0 C3.26187857 3.7856357 3.01657797 7.23682449 2.87890625 11.16796875 C2.85529526 11.96278152 2.83168427 12.7575943 2.80735779 13.57649231 C2.73081899 16.11368099 2.64675272 18.6505569 2.5625 21.1875 C2.50926951 22.90818785 2.45652917 24.62889094 2.40429688 26.34960938 C2.27521711 30.56660411 2.13938609 34.78333385 2 39 C0 37 0 37 -0.22705078 33.37646484 C-0.22673357 31.82125311 -0.21540299 30.26601949 -0.1953125 28.7109375 C-0.1924826 27.89251373 -0.18965271 27.07408997 -0.18673706 26.23086548 C-0.17552532 23.61209607 -0.15041929 20.99366636 -0.125 18.375 C-0.11497147 16.60156743 -0.1058454 14.82812951 -0.09765625 13.0546875 C-0.07558278 8.70299374 -0.04104644 4.3515545 0 0 Z " fill="#4797C0" transform="translate(152,224)"/>
<path d="M0 0 C1.32 0 2.64 0 4 0 C4 0.66 4 1.32 4 2 C0.06777418 5.04769499 -2.93913724 5.35763255 -7.83203125 5.29296875 C-9.12431641 5.28330078 -10.41660156 5.27363281 -11.74804688 5.26367188 C-13.1028707 5.23860985 -14.45768841 5.21321506 -15.8125 5.1875 C-17.18683445 5.17244013 -18.56118468 5.15875401 -19.93554688 5.14648438 C-23.29076632 5.11116628 -26.64518166 5.06183851 -30 5 C-30.33 4.34 -30.66 3.68 -31 3 C-29.69796631 2.970271 -29.69796631 2.970271 -28.36962891 2.93994141 C-25.15273733 2.86190128 -21.93622955 2.77521119 -18.71972656 2.68261719 C-17.32691428 2.64430673 -15.93400235 2.60945741 -14.54101562 2.578125 C-12.54013692 2.53252093 -10.53957854 2.47348377 -8.5390625 2.4140625 C-7.33459473 2.3826416 -6.13012695 2.3512207 -4.88916016 2.31884766 C-1.8739982 2.29084774 -1.8739982 2.29084774 0 0 Z " fill="#449AC4" transform="translate(406,277)"/>
<path d="M0 0 C0.33 0 0.66 0 1 0 C1 3.96 1 7.92 1 12 C-3.45036989 14.22518495 -9.17161616 13.50765718 -14 13 C-18.6952535 11.18855961 -22.40733418 8.37512357 -25 4 C-22.525 4.495 -22.525 4.495 -20 5 C-20 5.99 -20 6.98 -20 8 C-19.236875 7.95875 -18.47375 7.9175 -17.6875 7.875 C-15 8 -15 8 -12 10 C-8.34087399 10.56131311 -4.69742878 10.73900503 -1 11 C-0.67 7.37 -0.34 3.74 0 0 Z " fill="#5CA5CC" transform="translate(79,269)"/>
<path d="M0 0 C4.7958104 3.11079594 6.58087347 6.60289606 8 12 C8.35971888 15.0440832 8.35298575 18.03196553 8.29296875 21.09375 C8.28872391 21.92588013 8.28447906 22.75801025 8.28010559 23.61535645 C8.26346307 26.24391593 8.22583976 28.87167667 8.1875 31.5 C8.17243444 33.29425967 8.15874933 35.0885315 8.14648438 36.8828125 C8.11360714 41.25551083 8.06192722 45.62762053 8 50 C7.67 50 7.34 50 7 50 C6.98541748 49.02764404 6.97083496 48.05528809 6.95581055 47.0534668 C6.89718653 43.39459145 6.81996749 39.73629106 6.73754883 36.07788086 C6.7045973 34.5040836 6.67647602 32.93017661 6.65356445 31.35620117 C7.13177201 16.35869779 7.13177201 16.35869779 1.3972168 3.33862305 C0.93613525 2.89687744 0.47505371 2.45513184 0 2 C0 1.34 0 0.68 0 0 Z " fill="#3A8EB9" transform="translate(301,231)"/>
<path d="M0 0 C0.66 0.33 1.32 0.66 2 1 C-0.06756277 3.7972908 -1.14440371 4.02692273 -4.6875 4.6875 C-5.780625 4.790625 -6.87375 4.89375 -8 5 C-8.33 5.99 -8.66 6.98 -9 8 C-10.43739513 8.02712066 -11.87493863 8.04645067 -13.3125 8.0625 C-14.51326172 8.07990234 -14.51326172 8.07990234 -15.73828125 8.09765625 C-18 8 -18 8 -21 7 C-21 6.34 -21 5.68 -21 5 C-20.071875 4.87625 -19.14375 4.7525 -18.1875 4.625 C-14.86074765 4.18466918 -14.86074765 4.18466918 -12 2 C-9.8125 1.375 -9.8125 1.375 -8 1 C-8 1.66 -8 2.32 -8 3 C-3.66770285 2.1395861 -3.66770285 2.1395861 0 0 Z " fill="#409AC8" transform="translate(128,268)"/>
<path d="M0 0 C2 3 2 3 1.625 5.6875 C1.41875 6.450625 1.2125 7.21375 1 8 C2.65 8.33 4.3 8.66 6 9 C6 10.32 6 11.64 6 13 C3.69 13.33 1.38 13.66 -1 14 C-3 8.25 -3 8.25 -3 6 C-2.34 6 -1.68 6 -1 6 C-0.67 4.02 -0.34 2.04 0 0 Z " fill="#1C86C2" transform="translate(88,254)"/>
<path d="M0 0 C1.64574566 -0.02688151 3.29161413 -0.04634123 4.9375 -0.0625 C5.85402344 -0.07410156 6.77054688 -0.08570313 7.71484375 -0.09765625 C10 0 10 0 11 1 C11.08843793 3.44830426 11.11528752 5.86820599 11.09765625 8.31640625 C11.0962413 9.04746078 11.09482635 9.77851532 11.09336853 10.53172302 C11.08775408 12.87535632 11.07519922 15.21889539 11.0625 17.5625 C11.05748686 19.14778508 11.05292363 20.73307166 11.04882812 22.31835938 C11.03777997 26.2122761 11.02050572 30.10612205 11 34 C10.67 34 10.34 34 10 34 C9.97494385 33.20303711 9.9498877 32.40607422 9.92407227 31.58496094 C9.80801211 27.97314778 9.68533069 24.36158898 9.5625 20.75 C9.52318359 19.49574219 9.48386719 18.24148437 9.44335938 16.94921875 C9.40146484 15.74394531 9.35957031 14.53867188 9.31640625 13.296875 C9.27974854 12.18666992 9.24309082 11.07646484 9.20532227 9.93261719 C9.03289096 7.46978151 8.70404561 5.35517035 8 3 C5.36 3 2.72 3 0 3 C0 2.01 0 1.02 0 0 Z " fill="#2F8CBB" transform="translate(154,223)"/>
<path d="M0 0 C-0.54723683 3.37462715 -1.0549 5.08235 -3 8 C-3 9.32 -3 10.64 -3 12 C-4.32 11.34 -5.64 10.68 -7 10 C-6.7215625 9.0409375 -6.7215625 9.0409375 -6.4375 8.0625 C-6.293125 7.381875 -6.14875 6.70125 -6 6 C-7.05978933 4.71387324 -7.05978933 4.71387324 -9.50390625 4.90234375 C-10.51324219 4.91394531 -11.52257812 4.92554688 -12.5625 4.9375 C-13.57441406 4.94652344 -14.58632812 4.95554688 -15.62890625 4.96484375 C-16.41136719 4.97644531 -17.19382813 4.98804688 -18 5 C-15.17248703 3.11499136 -13.72347946 2.57682343 -10.5 1.9375 C-0.89256198 0 -0.89256198 0 0 0 Z " fill="#60A5CA" transform="translate(159,205)"/>
<path d="M0 0 C3.63 0.33 7.26 0.66 11 1 C11 1.66 11 2.32 11 3 C12.98 2.67 14.96 2.34 17 2 C17 2.66 17 3.32 17 4 C13.91190305 5.76462683 12.76687864 6 9 6 C9 5.34 9 4.68 9 4 C6.36 3.67 3.72 3.34 1 3 C0.67 2.01 0.34 1.02 0 0 Z " fill="#6FB1D4" transform="translate(103,265)"/>
<path d="M0 0 C0.33 0.66 0.66 1.32 1 2 C-5.435 2.495 -5.435 2.495 -12 3 C-9.03 3.495 -9.03 3.495 -6 4 C-6.33 4.99 -6.66 5.98 -7 7 C-13.4 6.50769231 -13.4 6.50769231 -16.4375 3.9375 C-17.2109375 2.9784375 -17.2109375 2.9784375 -18 2 C-15.88074396 -0.11925604 -11.3803907 0.58168983 -8.4375 0.4375 C-7.22803711 0.37272461 -7.22803711 0.37272461 -5.99414062 0.30664062 C-3.99631195 0.20024738 -1.9981793 0.09959112 0 0 Z " fill="#C5DDE9" transform="translate(128,257)"/>
<path d="M0 0 C0.33 0 0.66 0 1 0 C1.02687279 1.81242052 1.04633715 3.62495233 1.0625 5.4375 C1.07410156 6.44683594 1.08570313 7.45617187 1.09765625 8.49609375 C1 11 1 11 0 12 C-2.69654854 12.07319621 -5.36691458 12.09242537 -8.0625 12.0625 C-9.20041992 12.05573242 -9.20041992 12.05573242 -10.36132812 12.04882812 C-12.24091871 12.0370068 -14.12046899 12.01907078 -16 12 C-16 11.34 -16 10.68 -16 10 C-11.05 10 -6.1 10 -1 10 C-1 7.69 -1 5.38 -1 3 C-0.67 2.01 -0.34 1.02 0 0 Z " fill="#308AB9" transform="translate(451,224)"/>
<path d="M0 0 C2 1 2 1 2.625 2.625 C3.12095645 5.7660575 3.06103811 8.82601831 3 12 C1.68 12.33 0.36 12.66 -1 13 C-1.33 12.01 -1.66 11.02 -2 10 C-2.66 9.67 -3.32 9.34 -4 9 C-2.68 6.03 -1.36 3.06 0 0 Z " fill="#9BC6DB" transform="translate(133,247)"/>
<path d="M0 0 C0 1.32 0 2.64 0 4 C0.66 4 1.32 4 2 4 C2 5.65 2 7.3 2 9 C1.896875 8.360625 1.79375 7.72125 1.6875 7.0625 C1.460625 6.381875 1.23375 5.70125 1 5 C-3.1431531 3.61894897 -7.30756727 3.64947295 -11.63867188 3.48242188 C-16.78526139 3.21473861 -16.78526139 3.21473861 -19 1 C-16.20837429 0.83262201 -13.41670379 0.66606598 -10.625 0.5 C-9.8309375 0.45230469 -9.036875 0.40460938 -8.21875 0.35546875 C-2.2265625 0 -2.2265625 0 0 0 Z " fill="#4A9BC5" transform="translate(403,256)"/>
<path d="M0 0 C0.33 1.32 0.66 2.64 1 4 C1.66 4 2.32 4 3 4 C3 3.34 3 2.68 3 2 C4.65 1.34 6.3 0.68 8 0 C6.94124926 3.40312738 5.99097846 6.01353231 4 9 C3.61500109 10.65549531 3.27206865 12.3222433 3 14 C2.67 14 2.34 14 2 14 C2 12.02 2 10.04 2 8 C1.34 8 0.68 8 0 8 C-0.38063221 5.6739143 -0.71269945 3.33944736 -1 1 C-0.67 0.67 -0.34 0.34 0 0 Z " fill="#54A0C5" transform="translate(87,230)"/>
<path d="M0 0 C0.33 1.32 0.66 2.64 1 4 C0.34 4 -0.32 4 -1 4 C-1.12375 5.051875 -1.2475 6.10375 -1.375 7.1875 C-2 11 -2 11 -3 13.3125 C-4.52873106 17.42096472 -4.67909326 21.65086919 -5 26 C-5.33 26 -5.66 26 -6 26 C-6.57833622 16.36106302 -6.60077322 9.2634359 -1 1 C-0.67 0.67 -0.34 0.34 0 0 Z " fill="#519EC4" transform="translate(319,233)"/>
<path d="M0 0 C6.15234375 -0.09765625 6.15234375 -0.09765625 8 0 C9 1 9 1 9.1328125 3.46875 C9.13023437 4.4690625 9.12765625 5.469375 9.125 6.5 C9.12757813 7.5003125 9.13015625 8.500625 9.1328125 9.53125 C9 12 9 12 8 13 C5.66702567 13.04092937 3.33294775 13.04241723 1 13 C1.33 12.34 1.66 11.68 2 11 C3.98 11 5.96 11 8 11 C7.35493804 6.87561925 7.35493804 6.87561925 6 3 C3.00571856 1.38852558 3.00571856 1.38852558 0 1 C0 0.67 0 0.34 0 0 Z " fill="#328BBA" transform="translate(239,223)"/>
<path d="M0 0 C0.66 0 1.32 0 2 0 C4.7617689 10.4764622 4.7617689 10.4764622 2 16 C1.34 15.67 0.68 15.34 0 15 C0 10.05 0 5.1 0 0 Z " fill="#4D9ABE" transform="translate(96,245)"/>
<path d="M0 0 C0.66 0.33 1.32 0.66 2 1 C1.01 2.485 1.01 2.485 0 4 C0.3121764 6.64632287 0.3121764 6.64632287 1 9 C-2.3 8.67 -5.6 8.34 -9 8 C-7.68 7.67 -6.36 7.34 -5 7 C-4.30062468 5.68352881 -3.63270867 4.34977849 -3 3 C-2.01 2.67 -1.02 2.34 0 2 C0 1.34 0 0.68 0 0 Z " fill="#278EC4" transform="translate(122,216)"/>
<path d="M0 0 C0.66 0.33 1.32 0.66 2 1 C1.071875 2.1446875 1.071875 2.1446875 0.125 3.3125 C-2.74282248 6.93945196 -4.2630266 9.45533071 -5 14 C-5.33 13.34 -5.66 12.68 -6 12 C-6.66 12 -7.32 12 -8 12 C-6.74337944 7.49710965 -5.16038089 4.4566666 -2 1 C-1.34 0.67 -0.68 0.34 0 0 Z " fill="#6AA7C5" transform="translate(99,235)"/>
<path d="M0 0 C0.33 0 0.66 0 1 0 C1 2.31 1 4.62 1 7 C1.66 7.33 2.32 7.66 3 8 C2.34 8 1.68 8 1 8 C1 8.66 1 9.32 1 10 C1.78375 10.12375 2.5675 10.2475 3.375 10.375 C6 11 6 11 8 13 C8 13.99 8 14.98 8 16 C5.025034 14.61876579 2.38674687 13.26740952 0 11 C-0.390625 8.30078125 -0.390625 8.30078125 -0.25 5.3125 C-0.21390625 4.31863281 -0.1778125 3.32476562 -0.140625 2.30078125 C-0.09421875 1.54152344 -0.0478125 0.78226563 0 0 Z " fill="#84BCD9" transform="translate(92,252)"/>
<path d="M0 0 C1.60875 0.2784375 1.60875 0.2784375 3.25 0.5625 C6.40391546 0.9304568 8.09818492 1.04465343 11 0 C11 0.66 11 1.32 11 2 C9.56445975 2.50559908 8.1264798 3.0042749 6.6875 3.5 C5.48673828 3.91765625 5.48673828 3.91765625 4.26171875 4.34375 C2 5 2 5 -1 5 C-0.67 3.35 -0.34 1.7 0 0 Z " fill="#58A6CE" transform="translate(125,262)"/>
<path d="M0 0 C4.84973256 3.14577247 6.6832748 6.51899754 8 12 C8 13.32 8 14.64 8 16 C7.34 16 6.68 16 6 16 C5.81824219 15.24074219 5.63648438 14.48148438 5.44921875 13.69921875 C5.19785156 12.70535156 4.94648438 11.71148437 4.6875 10.6875 C4.32205078 9.20830078 4.32205078 9.20830078 3.94921875 7.69921875 C2.98488133 4.95700822 2.0978822 3.90983674 0 2 C0 1.34 0 0.68 0 0 Z " fill="#58A2C7" transform="translate(301,231)"/>
<path d="M0 0 C2.475 0.495 2.475 0.495 5 1 C5 1.99 5 2.98 5 4 C5.763125 3.938125 6.52625 3.87625 7.3125 3.8125 C10 4 10 4 11.8125 5.5 C12.204375 5.995 12.59625 6.49 13 7 C9.83773737 7.46277014 7.75107761 7.49921925 5.04296875 5.69921875 C3.27789416 4.19297384 1.58608787 2.69401693 0 1 C0 0.67 0 0.34 0 0 Z " fill="#4198C0" transform="translate(54,273)"/>
<path d="M0 0 C5.53846154 -0.36923077 5.53846154 -0.36923077 7.875 1.5 C8.24625 1.995 8.6175 2.49 9 3 C6 5 6 5 3 5 C3 4.34 3 3.68 3 3 C2.01 2.67 1.02 2.34 0 2 C0 1.34 0 0.68 0 0 Z " fill="#1F87BC" transform="translate(111,263)"/>
<path d="M0 0 C1.4540625 0.0309375 1.4540625 0.0309375 2.9375 0.0625 C2.9375 1.3825 2.9375 2.7025 2.9375 4.0625 C0.9575 4.3925 -1.0225 4.7225 -3.0625 5.0625 C-3.625 3.125 -3.625 3.125 -4.0625 1.0625 C-3.0625 0.0625 -3.0625 0.0625 0 0 Z " fill="#1689CA" transform="translate(91.0625,262.9375)"/>
<path d="M0 0 C0.33 0 0.66 0 1 0 C1 1.98 1 3.96 1 6 C1.66 6 2.32 6 3 6 C3 6.99 3 7.98 3 9 C1.35 9 -0.3 9 -2 9 C-3 6 -3 6 -1.5625 2.8125 C-1.046875 1.884375 -0.53125 0.95625 0 0 Z " fill="#2A8DC1" transform="translate(86,232)"/>
<path d="M0 0 C0.99 0.33 1.98 0.66 3 1 C3.33 1.99 3.66 2.98 4 4 C3.01 4.495 3.01 4.495 2 5 C2 4.34 2 3.68 2 3 C1.34 3 0.68 3 0 3 C0.33 3.99 0.66 4.98 1 6 C-1.31 5.34 -3.62 4.68 -6 4 C-6 3.34 -6 2.68 -6 2 C-3.525 2.495 -3.525 2.495 -1 3 C-0.67 2.01 -0.34 1.02 0 0 Z " fill="#298DC0" transform="translate(99,258)"/>
<path d="M0 0 C-0.34021964 3.17538332 -1.02466604 4.02276865 -3.4375 6.25 C-6 8 -6 8 -8 8 C-7.65978036 4.82461668 -6.97533396 3.97723135 -4.5625 1.75 C-2 0 -2 0 0 0 Z " fill="#318FBD" transform="translate(328,227)"/>
<path d="M0 0 C3.48539917 0.64544429 6.02819057 2.10134397 9 4 C8.34 4.66 7.68 5.32 7 6 C7 6.33 7 6.66 7 7 C5.35 7 3.7 7 2 7 C2.66 6.34 3.32 5.68 4 5 C2.68 3.35 1.36 1.7 0 0 Z " fill="#5BA1C6" transform="translate(102,256)"/>
<path d="M0 0 C0.99 0 1.98 0 3 0 C2.979375 1.11375 2.95875 2.2275 2.9375 3.375 C2.73619282 6.83215921 2.73619282 6.83215921 4 9 C2.68 9 1.36 9 0 9 C0 6.03 0 3.06 0 0 Z " fill="#4899C3" transform="translate(386,237)"/>
<path d="M0 0 C4.8 3.44615385 4.8 3.44615385 5.8125 6.25 C5.874375 6.8275 5.93625 7.405 6 8 C4.35 7.67 2.7 7.34 1 7 C0.67 4.69 0.34 2.38 0 0 Z " fill="#4499C7" transform="translate(363,231)"/>
<path d="M0 0 C0 4.41236026 -2.0697293 5.78384923 -5 9 C-5.33 9 -5.66 9 -6 9 C-6 7.35 -6 5.7 -6 4 C-4.68 4 -3.36 4 -2 4 C-2 3.01 -2 2.02 -2 1 C-1.34 0.67 -0.68 0.34 0 0 Z " fill="#3390BE" transform="translate(141,266)"/>
<path d="M0 0 C1.64826111 2.96687001 2.44271087 5.65626525 3 9 C2.01 8.67 1.02 8.34 0 8 C-0.38063221 5.6739143 -0.71269945 3.33944736 -1 1 C-0.67 0.67 -0.34 0.34 0 0 Z " fill="#0E87CC" transform="translate(377,241)"/>
<path d="M0 0 C1.63800475 4.5500132 0.83757562 9.07850298 -1.0625 13.4375 C-1.371875 13.953125 -1.68125 14.46875 -2 15 C-2.19392201 9.47322267 -1.7479503 5.24385089 0 0 Z " fill="#C9E0EC" transform="translate(91,237)"/>
<path d="M0 0 C2.21736634 1.10868317 4.03617993 2.49440461 6 4 C5 5 5 5 2.71484375 5.09765625 C1.34005859 5.08025391 1.34005859 5.08025391 -0.0625 5.0625 C-0.98160156 5.05347656 -1.90070313 5.04445312 -2.84765625 5.03515625 C-3.55792969 5.02355469 -4.26820313 5.01195312 -5 5 C-5 4.67 -5 4.34 -5 4 C-3.35 4 -1.7 4 0 4 C0 2.68 0 1.36 0 0 Z " fill="#278CBE" transform="translate(142,219)"/>
<path d="M0 0 C3.00617269 3.00617269 2.59585316 5.82381598 3 10 C2.34 10 1.68 10 1 10 C-0.60725635 6.78548731 -0.05748185 3.56387464 0 0 Z " fill="#E6F1F6" transform="translate(94,250)"/>
<path d="M0 0 C4.455 0.99 4.455 0.99 9 2 C9 2.33 9 2.66 9 3 C8.05125 3.103125 7.1025 3.20625 6.125 3.3125 C2.70892499 3.68539295 2.70892499 3.68539295 1 7 C1 5.68 1 4.36 1 3 C0.34 2.67 -0.32 2.34 -1 2 C-0.67 1.34 -0.34 0.68 0 0 Z " fill="#65A9CD" transform="translate(98,214)"/>
<path d="M0 0 C0.66 0 1.32 0 2 0 C2 0.66 2 1.32 2 2 C3.32 2 4.64 2 6 2 C6.33 3.65 6.66 5.3 7 7 C3.17053157 5.54744301 1.87949705 3.57104439 0 0 Z " fill="#4C9AC6" transform="translate(157,270)"/>
<path d="M0 0 C2.64 0.33 5.28 0.66 8 1 C7.67 1.66 7.34 2.32 7 3 C5.02 3 3.04 3 1 3 C0.67 2.01 0.34 1.02 0 0 Z " fill="#B2D6E8" transform="translate(103,265)"/>
<path d="M0 0 C1.32 0.33 2.64 0.66 4 1 C4.33 3.31 4.66 5.62 5 8 C2.74754119 5.31158141 1.11786042 3.35358125 0 0 Z " fill="#3E96C1" transform="translate(315,264)"/>
<path d="M0 0 C3.36720387 1.39332574 4.9859524 2.9789286 7 6 C4.625 5.8125 4.625 5.8125 2 5 C0.6875 2.4375 0.6875 2.4375 0 0 Z " fill="#DAEAF1" transform="translate(100,256)"/>
<path d="M0 0 C1.9375 0.75 1.9375 0.75 4 2 C4.75 4.125 4.75 4.125 5 6 C4.01 6.33 3.02 6.66 2 7 C1.34 4.69 0.68 2.38 0 0 Z " fill="#78ADC9" transform="translate(131,240)"/>
<path d="M0 0 C-1 3 -1 3 -3.4375 4.75 C-4.7059375 5.36875 -4.7059375 5.36875 -6 6 C-6.66 5.67 -7.32 5.34 -8 5 C-3.375 0 -3.375 0 0 0 Z " fill="#519FC1" transform="translate(360,263)"/>
<path d="M0 0 C2 3 2 3 1.6875 5.5625 C1 8 1 8 0 10 C-0.66 9.67 -1.32 9.34 -2 9 C-1.505 7.88625 -1.505 7.88625 -1 6.75 C0.22782871 3.86116688 0.22782871 3.86116688 0 0 Z " fill="#58A4C9" transform="translate(98,251)"/>
<path d="M0 0 C-1.39332574 3.36720387 -2.9789286 4.9859524 -6 7 C-5.37162381 3.35541809 -4.14650034 0 0 0 Z " fill="#DFECF1" transform="translate(274,238)"/>
<path d="M0 0 C-2.91403262 1.94268841 -5.85808576 3.46395304 -9 5 C-9 3.68 -9 2.36 -9 1 C-5.92677456 0.08941469 -3.19902639 -0.08886184 0 0 Z " fill="#338FBD" transform="translate(239,236)"/>
</svg>
